<?xml version="1.0" encoding="UTF-8"?>
<svg version="1.1" baseProfile="tiny" xmlns="http://www.w3.org/2000/svg" width="300" height="300">
<rect shape-rendering="optimizeSpeed"  x="0" y="0" width="300" height="300" fill="white" />
<rect shape-rendering="optimizeSpeed"  x="18" y="18" width="8" height="8" fill="black" />
<rect shape-rendering="optimizeSpeed"  x="26" y="18" width="8" height="8" fill="black" />
<rect shape-rendering="optimizeSpeed"  x="34" y="18" width="8" height="8" fill="black" />
<rect shape-rendering="optimizeSpeed"  x="42" y="18" width="8" height="8" fill="black" />
<rect shape-rendering="optimizeSpeed"  x="50" y="18" width="8" height="8" fill="black" />
<rect shape-rendering="optimizeSpeed"  x="58" y="18" width="8" height="8" fill="black" />
<rect shape-rendering="optimizeSpeed"  x="66" y="18" width="8" height="8" fill="black" />
<rect shape-rendering="optimizeSpeed"  x="90" y="18" width="8" height="8" fill="black" />
<rect shape-rendering="optimizeSpeed"  x="130" y="18" width="8" height="8" fill="black" />
<rect shape-rendering="optimizeSpeed"  x="146" y="18" width="8" height="8" fill="black" />
<rect shape-rendering="optimizeSpeed"  x="154" y="18" width="8" height="8" fill="black" />
<rect shape-rendering="optimizeSpeed"  x="162" y="18" width="8" height="8" fill="black" />
<rect shape-rendering="optimizeSpeed"  x="178" y="18" width="8" height="8" fill="black" />
<rect shape-rendering="optimizeSpeed"  x="194" y="18" width="8" height="8" fill="black" />
<rect shape-rendering="optimizeSpeed"  x="202" y="18" width="8" height="8" fill="black" />
<rect shape-rendering="optimizeSpeed"  x="226" y="18" width="8" height="8" fill="black" />
<rect shape-rendering="optimizeSpeed"  x="234" y="18" width="8" height="8" fill="black" />
<rect shape-rendering="optimizeSpeed"  x="242" y="18" width="8" height="8" fill="black" />
<rect shape-rendering="optimizeSpeed"  x="250" y="18" width="8" height="8" fill="black" />
<rect shape-rendering="optimizeSpeed"  x="258" y="18" width="8" height="8" fill="black" />
<rect shape-rendering="optimizeSpeed"  x="266" y="18" width="8" height="8" fill="black" />
<rect shape-rendering="optimizeSpeed"  x="274" y="18" width="8" height="8" fill="black" />
<rect shape-rendering="optimizeSpeed"  x="18" y="26" width="8" height="8" fill="black" />
<rect shape-rendering="optimizeSpeed"  x="66" y="26" width="8" height="8" fill="black" />
<rect shape-rendering="optimizeSpeed"  x="82" y="26" width="8" height="8" fill="black" />
<rect shape-rendering="optimizeSpeed"  x="90" y="26" width="8" height="8" fill="black" />
<rect shape-rendering="optimizeSpeed"  x="106" y="26" width="8" height="8" fill="black" />
<rect shape-rendering="optimizeSpeed"  x="114" y="26" width="8" height="8" fill="black" />
<rect shape-rendering="optimizeSpeed"  x="122" y="26" width="8" height="8" fill="black" />
<rect shape-rendering="optimizeSpeed"  x="138" y="26" width="8" height="8" fill="black" />
<rect shape-rendering="optimizeSpeed"  x="146" y="26" width="8" height="8" fill="black" />
<rect shape-rendering="optimizeSpeed"  x="162" y="26" width="8" height="8" fill="black" />
<rect shape-rendering="optimizeSpeed"  x="178" y="26" width="8" height="8" fill="black" />
<rect shape-rendering="optimizeSpeed"  x="186" y="26" width="8" height="8" fill="black" />
<rect shape-rendering="optimizeSpeed"  x="226" y="26" width="8" height="8" fill="black" />
<rect shape-rendering="optimizeSpeed"  x="274" y="26" width="8" height="8" fill="black" />
<rect shape-rendering="optimizeSpeed"  x="18" y="34" width="8" height="8" fill="black" />
<rect shape-rendering="optimizeSpeed"  x="34" y="34" width="8" height="8" fill="black" />
<rect shape-rendering="optimizeSpeed"  x="42" y="34" width="8" height="8" fill="black" />
<rect shape-rendering="optimizeSpeed"  x="50" y="34" width="8" height="8" fill="black" />
<rect shape-rendering="optimizeSpeed"  x="66" y="34" width="8" height="8" fill="black" />
<rect shape-rendering="optimizeSpeed"  x="90" y="34" width="8" height="8" fill="black" />
<rect shape-rendering="optimizeSpeed"  x="98" y="34" width="8" height="8" fill="black" />
<rect shape-rendering="optimizeSpeed"  x="106" y="34" width="8" height="8" fill="black" />
<rect shape-rendering="optimizeSpeed"  x="130" y="34" width="8" height="8" fill="black" />
<rect shape-rendering="optimizeSpeed"  x="162" y="34" width="8" height="8" fill="black" />
<rect shape-rendering="optimizeSpeed"  x="178" y="34" width="8" height="8" fill="black" />
<rect shape-rendering="optimizeSpeed"  x="186" y="34" width="8" height="8" fill="black" />
<rect shape-rendering="optimizeSpeed"  x="194" y="34" width="8" height="8" fill="black" />
<rect shape-rendering="optimizeSpeed"  x="210" y="34" width="8" height="8" fill="black" />
<rect shape-rendering="optimizeSpeed"  x="226" y="34" width="8" height="8" fill="black" />
<rect shape-rendering="optimizeSpeed"  x="242" y="34" width="8" height="8" fill="black" />
<rect shape-rendering="optimizeSpeed"  x="250" y="34" width="8" height="8" fill="black" />
<rect shape-rendering="optimizeSpeed"  x="258" y="34" width="8" height="8" fill="black" />
<rect shape-rendering="optimizeSpeed"  x="274" y="34" width="8" height="8" fill="black" />
<rect shape-rendering="optimizeSpeed"  x="18" y="42" width="8" height="8" fill="black" />
<rect shape-rendering="optimizeSpeed"  x="34" y="42" width="8" height="8" fill="black" />
<rect shape-rendering="optimizeSpeed"  x="42" y="42" width="8" height="8" fill="black" />
<rect shape-rendering="optimizeSpeed"  x="50" y="42" width="8" height="8" fill="black" />
<rect shape-rendering="optimizeSpeed"  x="66" y="42" width="8" height="8" fill="black" />
<rect shape-rendering="optimizeSpeed"  x="82" y="42" width="8" height="8" fill="black" />
<rect shape-rendering="optimizeSpeed"  x="90" y="42" width="8" height="8" fill="black" />
<rect shape-rendering="optimizeSpeed"  x="106" y="42" width="8" height="8" fill="black" />
<rect shape-rendering="optimizeSpeed"  x="130" y="42" width="8" height="8" fill="black" />
<rect shape-rendering="optimizeSpeed"  x="138" y="42" width="8" height="8" fill="black" />
<rect shape-rendering="optimizeSpeed"  x="194" y="42" width="8" height="8" fill="black" />
<rect shape-rendering="optimizeSpeed"  x="210" y="42" width="8" height="8" fill="black" />
<rect shape-rendering="optimizeSpeed"  x="226" y="42" width="8" height="8" fill="black" />
<rect shape-rendering="optimizeSpeed"  x="242" y="42" width="8" height="8" fill="black" />
<rect shape-rendering="optimizeSpeed"  x="250" y="42" width="8" height="8" fill="black" />
<rect shape-rendering="optimizeSpeed"  x="258" y="42" width="8" height="8" fill="black" />
<rect shape-rendering="optimizeSpeed"  x="274" y="42" width="8" height="8" fill="black" />
<rect shape-rendering="optimizeSpeed"  x="18" y="50" width="8" height="8" fill="black" />
<rect shape-rendering="optimizeSpeed"  x="34" y="50" width="8" height="8" fill="black" />
<rect shape-rendering="optimizeSpeed"  x="42" y="50" width="8" height="8" fill="black" />
<rect shape-rendering="optimizeSpeed"  x="50" y="50" width="8" height="8" fill="black" />
<rect shape-rendering="optimizeSpeed"  x="66" y="50" width="8" height="8" fill="black" />
<rect shape-rendering="optimizeSpeed"  x="98" y="50" width="8" height="8" fill="black" />
<rect shape-rendering="optimizeSpeed"  x="114" y="50" width="8" height="8" fill="black" />
<rect shape-rendering="optimizeSpeed"  x="122" y="50" width="8" height="8" fill="black" />
<rect shape-rendering="optimizeSpeed"  x="138" y="50" width="8" height="8" fill="black" />
<rect shape-rendering="optimizeSpeed"  x="146" y="50" width="8" height="8" fill="black" />
<rect shape-rendering="optimizeSpeed"  x="178" y="50" width="8" height="8" fill="black" />
<rect shape-rendering="optimizeSpeed"  x="202" y="50" width="8" height="8" fill="black" />
<rect shape-rendering="optimizeSpeed"  x="226" y="50" width="8" height="8" fill="black" />
<rect shape-rendering="optimizeSpeed"  x="242" y="50" width="8" height="8" fill="black" />
<rect shape-rendering="optimizeSpeed"  x="250" y="50" width="8" height="8" fill="black" />
<rect shape-rendering="optimizeSpeed"  x="258" y="50" width="8" height="8" fill="black" />
<rect shape-rendering="optimizeSpeed"  x="274" y="50" width="8" height="8" fill="black" />
<rect shape-rendering="optimizeSpeed"  x="18" y="58" width="8" height="8" fill="black" />
<rect shape-rendering="optimizeSpeed"  x="66" y="58" width="8" height="8" fill="black" />
<rect shape-rendering="optimizeSpeed"  x="82" y="58" width="8" height="8" fill="black" />
<rect shape-rendering="optimizeSpeed"  x="98" y="58" width="8" height="8" fill="black" />
<rect shape-rendering="optimizeSpeed"  x="130" y="58" width="8" height="8" fill="black" />
<rect shape-rendering="optimizeSpeed"  x="138" y="58" width="8" height="8" fill="black" />
<rect shape-rendering="optimizeSpeed"  x="186" y="58" width="8" height="8" fill="black" />
<rect shape-rendering="optimizeSpeed"  x="194" y="58" width="8" height="8" fill="black" />
<rect shape-rendering="optimizeSpeed"  x="210" y="58" width="8" height="8" fill="black" />
<rect shape-rendering="optimizeSpeed"  x="226" y="58" width="8" height="8" fill="black" />
<rect shape-rendering="optimizeSpeed"  x="274" y="58" width="8" height="8" fill="black" />
<rect shape-rendering="optimizeSpeed"  x="18" y="66" width="8" height="8" fill="black" />
<rect shape-rendering="optimizeSpeed"  x="26" y="66" width="8" height="8" fill="black" />
<rect shape-rendering="optimizeSpeed"  x="34" y="66" width="8" height="8" fill="black" />
<rect shape-rendering="optimizeSpeed"  x="42" y="66" width="8" height="8" fill="black" />
<rect shape-rendering="optimizeSpeed"  x="50" y="66" width="8" height="8" fill="black" />
<rect shape-rendering="optimizeSpeed"  x="58" y="66" width="8" height="8" fill="black" />
<rect shape-rendering="optimizeSpeed"  x="66" y="66" width="8" height="8" fill="black" />
<rect shape-rendering="optimizeSpeed"  x="82" y="66" width="8" height="8" fill="black" />
<rect shape-rendering="optimizeSpeed"  x="98" y="66" width="8" height="8" fill="black" />
<rect shape-rendering="optimizeSpeed"  x="114" y="66" width="8" height="8" fill="black" />
<rect shape-rendering="optimizeSpeed"  x="130" y="66" width="8" height="8" fill="black" />
<rect shape-rendering="optimizeSpeed"  x="146" y="66" width="8" height="8" fill="black" />
<rect shape-rendering="optimizeSpeed"  x="162" y="66" width="8" height="8" fill="black" />
<rect shape-rendering="optimizeSpeed"  x="178" y="66" width="8" height="8" fill="black" />
<rect shape-rendering="optimizeSpeed"  x="194" y="66" width="8" height="8" fill="black" />
<rect shape-rendering="optimizeSpeed"  x="210" y="66" width="8" height="8" fill="black" />
<rect shape-rendering="optimizeSpeed"  x="226" y="66" width="8" height="8" fill="black" />
<rect shape-rendering="optimizeSpeed"  x="234" y="66" width="8" height="8" fill="black" />
<rect shape-rendering="optimizeSpeed"  x="242" y="66" width="8" height="8" fill="black" />
<rect shape-rendering="optimizeSpeed"  x="250" y="66" width="8" height="8" fill="black" />
<rect shape-rendering="optimizeSpeed"  x="258" y="66" width="8" height="8" fill="black" />
<rect shape-rendering="optimizeSpeed"  x="266" y="66" width="8" height="8" fill="black" />
<rect shape-rendering="optimizeSpeed"  x="274" y="66" width="8" height="8" fill="black" />
<rect shape-rendering="optimizeSpeed"  x="114" y="74" width="8" height="8" fill="black" />
<rect shape-rendering="optimizeSpeed"  x="138" y="74" width="8" height="8" fill="black" />
<rect shape-rendering="optimizeSpeed"  x="146" y="74" width="8" height="8" fill="black" />
<rect shape-rendering="optimizeSpeed"  x="186" y="74" width="8" height="8" fill="black" />
<rect shape-rendering="optimizeSpeed"  x="18" y="82" width="8" height="8" fill="black" />
<rect shape-rendering="optimizeSpeed"  x="26" y="82" width="8" height="8" fill="black" />
<rect shape-rendering="optimizeSpeed"  x="34" y="82" width="8" height="8" fill="black" />
<rect shape-rendering="optimizeSpeed"  x="42" y="82" width="8" height="8" fill="black" />
<rect shape-rendering="optimizeSpeed"  x="50" y="82" width="8" height="8" fill="black" />
<rect shape-rendering="optimizeSpeed"  x="66" y="82" width="8" height="8" fill="black" />
<rect shape-rendering="optimizeSpeed"  x="74" y="82" width="8" height="8" fill="black" />
<rect shape-rendering="optimizeSpeed"  x="82" y="82" width="8" height="8" fill="black" />
<rect shape-rendering="optimizeSpeed"  x="90" y="82" width="8" height="8" fill="black" />
<rect shape-rendering="optimizeSpeed"  x="98" y="82" width="8" height="8" fill="black" />
<rect shape-rendering="optimizeSpeed"  x="114" y="82" width="8" height="8" fill="black" />
<rect shape-rendering="optimizeSpeed"  x="130" y="82" width="8" height="8" fill="black" />
<rect shape-rendering="optimizeSpeed"  x="138" y="82" width="8" height="8" fill="black" />
<rect shape-rendering="optimizeSpeed"  x="146" y="82" width="8" height="8" fill="black" />
<rect shape-rendering="optimizeSpeed"  x="170" y="82" width="8" height="8" fill="black" />
<rect shape-rendering="optimizeSpeed"  x="194" y="82" width="8" height="8" fill="black" />
<rect shape-rendering="optimizeSpeed"  x="202" y="82" width="8" height="8" fill="black" />
<rect shape-rendering="optimizeSpeed"  x="210" y="82" width="8" height="8" fill="black" />
<rect shape-rendering="optimizeSpeed"  x="218" y="82" width="8" height="8" fill="black" />
<rect shape-rendering="optimizeSpeed"  x="234" y="82" width="8" height="8" fill="black" />
<rect shape-rendering="optimizeSpeed"  x="250" y="82" width="8" height="8" fill="black" />
<rect shape-rendering="optimizeSpeed"  x="266" y="82" width="8" height="8" fill="black" />
<rect shape-rendering="optimizeSpeed"  x="34" y="90" width="8" height="8" fill="black" />
<rect shape-rendering="optimizeSpeed"  x="42" y="90" width="8" height="8" fill="black" />
<rect shape-rendering="optimizeSpeed"  x="90" y="90" width="8" height="8" fill="black" />
<rect shape-rendering="optimizeSpeed"  x="130" y="90" width="8" height="8" fill="black" />
<rect shape-rendering="optimizeSpeed"  x="162" y="90" width="8" height="8" fill="black" />
<rect shape-rendering="optimizeSpeed"  x="170" y="90" width="8" height="8" fill="black" />
<rect shape-rendering="optimizeSpeed"  x="178" y="90" width="8" height="8" fill="black" />
<rect shape-rendering="optimizeSpeed"  x="202" y="90" width="8" height="8" fill="black" />
<rect shape-rendering="optimizeSpeed"  x="218" y="90" width="8" height="8" fill="black" />
<rect shape-rendering="optimizeSpeed"  x="226" y="90" width="8" height="8" fill="black" />
<rect shape-rendering="optimizeSpeed"  x="258" y="90" width="8" height="8" fill="black" />
<rect shape-rendering="optimizeSpeed"  x="266" y="90" width="8" height="8" fill="black" />
<rect shape-rendering="optimizeSpeed"  x="274" y="90" width="8" height="8" fill="black" />
<rect shape-rendering="optimizeSpeed"  x="42" y="98" width="8" height="8" fill="black" />
<rect shape-rendering="optimizeSpeed"  x="50" y="98" width="8" height="8" fill="black" />
<rect shape-rendering="optimizeSpeed"  x="58" y="98" width="8" height="8" fill="black" />
<rect shape-rendering="optimizeSpeed"  x="66" y="98" width="8" height="8" fill="black" />
<rect shape-rendering="optimizeSpeed"  x="90" y="98" width="8" height="8" fill="black" />
<rect shape-rendering="optimizeSpeed"  x="106" y="98" width="8" height="8" fill="black" />
<rect shape-rendering="optimizeSpeed"  x="114" y="98" width="8" height="8" fill="black" />
<rect shape-rendering="optimizeSpeed"  x="138" y="98" width="8" height="8" fill="black" />
<rect shape-rendering="optimizeSpeed"  x="178" y="98" width="8" height="8" fill="black" />
<rect shape-rendering="optimizeSpeed"  x="186" y="98" width="8" height="8" fill="black" />
<rect shape-rendering="optimizeSpeed"  x="210" y="98" width="8" height="8" fill="black" />
<rect shape-rendering="optimizeSpeed"  x="218" y="98" width="8" height="8" fill="black" />
<rect shape-rendering="optimizeSpeed"  x="250" y="98" width="8" height="8" fill="black" />
<rect shape-rendering="optimizeSpeed"  x="266" y="98" width="8" height="8" fill="black" />
<rect shape-rendering="optimizeSpeed"  x="26" y="106" width="8" height="8" fill="black" />
<rect shape-rendering="optimizeSpeed"  x="34" y="106" width="8" height="8" fill="black" />
<rect shape-rendering="optimizeSpeed"  x="42" y="106" width="8" height="8" fill="black" />
<rect shape-rendering="optimizeSpeed"  x="50" y="106" width="8" height="8" fill="black" />
<rect shape-rendering="optimizeSpeed"  x="58" y="106" width="8" height="8" fill="black" />
<rect shape-rendering="optimizeSpeed"  x="82" y="106" width="8" height="8" fill="black" />
<rect shape-rendering="optimizeSpeed"  x="90" y="106" width="8" height="8" fill="black" />
<rect shape-rendering="optimizeSpeed"  x="98" y="106" width="8" height="8" fill="black" />
<rect shape-rendering="optimizeSpeed"  x="106" y="106" width="8" height="8" fill="black" />
<rect shape-rendering="optimizeSpeed"  x="146" y="106" width="8" height="8" fill="black" />
<rect shape-rendering="optimizeSpeed"  x="178" y="106" width="8" height="8" fill="black" />
<rect shape-rendering="optimizeSpeed"  x="186" y="106" width="8" height="8" fill="black" />
<rect shape-rendering="optimizeSpeed"  x="194" y="106" width="8" height="8" fill="black" />
<rect shape-rendering="optimizeSpeed"  x="210" y="106" width="8" height="8" fill="black" />
<rect shape-rendering="optimizeSpeed"  x="258" y="106" width="8" height="8" fill="black" />
<rect shape-rendering="optimizeSpeed"  x="26" y="114" width="8" height="8" fill="black" />
<rect shape-rendering="optimizeSpeed"  x="58" y="114" width="8" height="8" fill="black" />
<rect shape-rendering="optimizeSpeed"  x="66" y="114" width="8" height="8" fill="black" />
<rect shape-rendering="optimizeSpeed"  x="90" y="114" width="8" height="8" fill="black" />
<rect shape-rendering="optimizeSpeed"  x="106" y="114" width="8" height="8" fill="black" />
<rect shape-rendering="optimizeSpeed"  x="114" y="114" width="8" height="8" fill="black" />
<rect shape-rendering="optimizeSpeed"  x="122" y="114" width="8" height="8" fill="black" />
<rect shape-rendering="optimizeSpeed"  x="130" y="114" width="8" height="8" fill="black" />
<rect shape-rendering="optimizeSpeed"  x="194" y="114" width="8" height="8" fill="black" />
<rect shape-rendering="optimizeSpeed"  x="218" y="114" width="8" height="8" fill="black" />
<rect shape-rendering="optimizeSpeed"  x="242" y="114" width="8" height="8" fill="black" />
<rect shape-rendering="optimizeSpeed"  x="250" y="114" width="8" height="8" fill="black" />
<rect shape-rendering="optimizeSpeed"  x="34" y="122" width="8" height="8" fill="black" />
<rect shape-rendering="optimizeSpeed"  x="58" y="122" width="8" height="8" fill="black" />
<rect shape-rendering="optimizeSpeed"  x="82" y="122" width="8" height="8" fill="black" />
<rect shape-rendering="optimizeSpeed"  x="98" y="122" width="8" height="8" fill="black" />
<rect shape-rendering="optimizeSpeed"  x="114" y="122" width="8" height="8" fill="black" />
<rect shape-rendering="optimizeSpeed"  x="130" y="122" width="8" height="8" fill="black" />
<rect shape-rendering="optimizeSpeed"  x="146" y="122" width="8" height="8" fill="black" />
<rect shape-rendering="optimizeSpeed"  x="178" y="122" width="8" height="8" fill="black" />
<rect shape-rendering="optimizeSpeed"  x="186" y="122" width="8" height="8" fill="black" />
<rect shape-rendering="optimizeSpeed"  x="194" y="122" width="8" height="8" fill="black" />
<rect shape-rendering="optimizeSpeed"  x="202" y="122" width="8" height="8" fill="black" />
<rect shape-rendering="optimizeSpeed"  x="218" y="122" width="8" height="8" fill="black" />
<rect shape-rendering="optimizeSpeed"  x="226" y="122" width="8" height="8" fill="black" />
<rect shape-rendering="optimizeSpeed"  x="266" y="122" width="8" height="8" fill="black" />
<rect shape-rendering="optimizeSpeed"  x="274" y="122" width="8" height="8" fill="black" />
<rect shape-rendering="optimizeSpeed"  x="18" y="130" width="8" height="8" fill="black" />
<rect shape-rendering="optimizeSpeed"  x="34" y="130" width="8" height="8" fill="black" />
<rect shape-rendering="optimizeSpeed"  x="42" y="130" width="8" height="8" fill="black" />
<rect shape-rendering="optimizeSpeed"  x="50" y="130" width="8" height="8" fill="black" />
<rect shape-rendering="optimizeSpeed"  x="66" y="130" width="8" height="8" fill="black" />
<rect shape-rendering="optimizeSpeed"  x="82" y="130" width="8" height="8" fill="black" />
<rect shape-rendering="optimizeSpeed"  x="130" y="130" width="8" height="8" fill="black" />
<rect shape-rendering="optimizeSpeed"  x="138" y="130" width="8" height="8" fill="black" />
<rect shape-rendering="optimizeSpeed"  x="146" y="130" width="8" height="8" fill="black" />
<rect shape-rendering="optimizeSpeed"  x="218" y="130" width="8" height="8" fill="black" />
<rect shape-rendering="optimizeSpeed"  x="242" y="130" width="8" height="8" fill="black" />
<rect shape-rendering="optimizeSpeed"  x="266" y="130" width="8" height="8" fill="black" />
<rect shape-rendering="optimizeSpeed"  x="26" y="138" width="8" height="8" fill="black" />
<rect shape-rendering="optimizeSpeed"  x="42" y="138" width="8" height="8" fill="black" />
<rect shape-rendering="optimizeSpeed"  x="50" y="138" width="8" height="8" fill="black" />
<rect shape-rendering="optimizeSpeed"  x="74" y="138" width="8" height="8" fill="black" />
<rect shape-rendering="optimizeSpeed"  x="106" y="138" width="8" height="8" fill="black" />
<rect shape-rendering="optimizeSpeed"  x="114" y="138" width="8" height="8" fill="black" />
<rect shape-rendering="optimizeSpeed"  x="146" y="138" width="8" height="8" fill="black" />
<rect shape-rendering="optimizeSpeed"  x="178" y="138" width="8" height="8" fill="black" />
<rect shape-rendering="optimizeSpeed"  x="186" y="138" width="8" height="8" fill="black" />
<rect shape-rendering="optimizeSpeed"  x="194" y="138" width="8" height="8" fill="black" />
<rect shape-rendering="optimizeSpeed"  x="202" y="138" width="8" height="8" fill="black" />
<rect shape-rendering="optimizeSpeed"  x="218" y="138" width="8" height="8" fill="black" />
<rect shape-rendering="optimizeSpeed"  x="242" y="138" width="8" height="8" fill="black" />
<rect shape-rendering="optimizeSpeed"  x="258" y="138" width="8" height="8" fill="black" />
<rect shape-rendering="optimizeSpeed"  x="18" y="146" width="8" height="8" fill="black" />
<rect shape-rendering="optimizeSpeed"  x="26" y="146" width="8" height="8" fill="black" />
<rect shape-rendering="optimizeSpeed"  x="34" y="146" width="8" height="8" fill="black" />
<rect shape-rendering="optimizeSpeed"  x="66" y="146" width="8" height="8" fill="black" />
<rect shape-rendering="optimizeSpeed"  x="82" y="146" width="8" height="8" fill="black" />
<rect shape-rendering="optimizeSpeed"  x="122" y="146" width="8" height="8" fill="black" />
<rect shape-rendering="optimizeSpeed"  x="130" y="146" width="8" height="8" fill="black" />
<rect shape-rendering="optimizeSpeed"  x="154" y="146" width="8" height="8" fill="black" />
<rect shape-rendering="optimizeSpeed"  x="162" y="146" width="8" height="8" fill="black" />
<rect shape-rendering="optimizeSpeed"  x="170" y="146" width="8" height="8" fill="black" />
<rect shape-rendering="optimizeSpeed"  x="194" y="146" width="8" height="8" fill="black" />
<rect shape-rendering="optimizeSpeed"  x="202" y="146" width="8" height="8" fill="black" />
<rect shape-rendering="optimizeSpeed"  x="210" y="146" width="8" height="8" fill="black" />
<rect shape-rendering="optimizeSpeed"  x="218" y="146" width="8" height="8" fill="black" />
<rect shape-rendering="optimizeSpeed"  x="234" y="146" width="8" height="8" fill="black" />
<rect shape-rendering="optimizeSpeed"  x="242" y="146" width="8" height="8" fill="black" />
<rect shape-rendering="optimizeSpeed"  x="266" y="146" width="8" height="8" fill="black" />
<rect shape-rendering="optimizeSpeed"  x="18" y="154" width="8" height="8" fill="black" />
<rect shape-rendering="optimizeSpeed"  x="42" y="154" width="8" height="8" fill="black" />
<rect shape-rendering="optimizeSpeed"  x="50" y="154" width="8" height="8" fill="black" />
<rect shape-rendering="optimizeSpeed"  x="82" y="154" width="8" height="8" fill="black" />
<rect shape-rendering="optimizeSpeed"  x="90" y="154" width="8" height="8" fill="black" />
<rect shape-rendering="optimizeSpeed"  x="106" y="154" width="8" height="8" fill="black" />
<rect shape-rendering="optimizeSpeed"  x="130" y="154" width="8" height="8" fill="black" />
<rect shape-rendering="optimizeSpeed"  x="138" y="154" width="8" height="8" fill="black" />
<rect shape-rendering="optimizeSpeed"  x="146" y="154" width="8" height="8" fill="black" />
<rect shape-rendering="optimizeSpeed"  x="178" y="154" width="8" height="8" fill="black" />
<rect shape-rendering="optimizeSpeed"  x="186" y="154" width="8" height="8" fill="black" />
<rect shape-rendering="optimizeSpeed"  x="194" y="154" width="8" height="8" fill="black" />
<rect shape-rendering="optimizeSpeed"  x="202" y="154" width="8" height="8" fill="black" />
<rect shape-rendering="optimizeSpeed"  x="210" y="154" width="8" height="8" fill="black" />
<rect shape-rendering="optimizeSpeed"  x="226" y="154" width="8" height="8" fill="black" />
<rect shape-rendering="optimizeSpeed"  x="250" y="154" width="8" height="8" fill="black" />
<rect shape-rendering="optimizeSpeed"  x="266" y="154" width="8" height="8" fill="black" />
<rect shape-rendering="optimizeSpeed"  x="274" y="154" width="8" height="8" fill="black" />
<rect shape-rendering="optimizeSpeed"  x="18" y="162" width="8" height="8" fill="black" />
<rect shape-rendering="optimizeSpeed"  x="26" y="162" width="8" height="8" fill="black" />
<rect shape-rendering="optimizeSpeed"  x="50" y="162" width="8" height="8" fill="black" />
<rect shape-rendering="optimizeSpeed"  x="66" y="162" width="8" height="8" fill="black" />
<rect shape-rendering="optimizeSpeed"  x="90" y="162" width="8" height="8" fill="black" />
<rect shape-rendering="optimizeSpeed"  x="98" y="162" width="8" height="8" fill="black" />
<rect shape-rendering="optimizeSpeed"  x="122" y="162" width="8" height="8" fill="black" />
<rect shape-rendering="optimizeSpeed"  x="138" y="162" width="8" height="8" fill="black" />
<rect shape-rendering="optimizeSpeed"  x="146" y="162" width="8" height="8" fill="black" />
<rect shape-rendering="optimizeSpeed"  x="154" y="162" width="8" height="8" fill="black" />
<rect shape-rendering="optimizeSpeed"  x="162" y="162" width="8" height="8" fill="black" />
<rect shape-rendering="optimizeSpeed"  x="186" y="162" width="8" height="8" fill="black" />
<rect shape-rendering="optimizeSpeed"  x="194" y="162" width="8" height="8" fill="black" />
<rect shape-rendering="optimizeSpeed"  x="250" y="162" width="8" height="8" fill="black" />
<rect shape-rendering="optimizeSpeed"  x="266" y="162" width="8" height="8" fill="black" />
<rect shape-rendering="optimizeSpeed"  x="34" y="170" width="8" height="8" fill="black" />
<rect shape-rendering="optimizeSpeed"  x="42" y="170" width="8" height="8" fill="black" />
<rect shape-rendering="optimizeSpeed"  x="50" y="170" width="8" height="8" fill="black" />
<rect shape-rendering="optimizeSpeed"  x="82" y="170" width="8" height="8" fill="black" />
<rect shape-rendering="optimizeSpeed"  x="90" y="170" width="8" height="8" fill="black" />
<rect shape-rendering="optimizeSpeed"  x="98" y="170" width="8" height="8" fill="black" />
<rect shape-rendering="optimizeSpeed"  x="106" y="170" width="8" height="8" fill="black" />
<rect shape-rendering="optimizeSpeed"  x="130" y="170" width="8" height="8" fill="black" />
<rect shape-rendering="optimizeSpeed"  x="138" y="170" width="8" height="8" fill="black" />
<rect shape-rendering="optimizeSpeed"  x="186" y="170" width="8" height="8" fill="black" />
<rect shape-rendering="optimizeSpeed"  x="226" y="170" width="8" height="8" fill="black" />
<rect shape-rendering="optimizeSpeed"  x="234" y="170" width="8" height="8" fill="black" />
<rect shape-rendering="optimizeSpeed"  x="242" y="170" width="8" height="8" fill="black" />
<rect shape-rendering="optimizeSpeed"  x="258" y="170" width="8" height="8" fill="black" />
<rect shape-rendering="optimizeSpeed"  x="18" y="178" width="8" height="8" fill="black" />
<rect shape-rendering="optimizeSpeed"  x="34" y="178" width="8" height="8" fill="black" />
<rect shape-rendering="optimizeSpeed"  x="50" y="178" width="8" height="8" fill="black" />
<rect shape-rendering="optimizeSpeed"  x="58" y="178" width="8" height="8" fill="black" />
<rect shape-rendering="optimizeSpeed"  x="66" y="178" width="8" height="8" fill="black" />
<rect shape-rendering="optimizeSpeed"  x="74" y="178" width="8" height="8" fill="black" />
<rect shape-rendering="optimizeSpeed"  x="90" y="178" width="8" height="8" fill="black" />
<rect shape-rendering="optimizeSpeed"  x="98" y="178" width="8" height="8" fill="black" />
<rect shape-rendering="optimizeSpeed"  x="106" y="178" width="8" height="8" fill="black" />
<rect shape-rendering="optimizeSpeed"  x="114" y="178" width="8" height="8" fill="black" />
<rect shape-rendering="optimizeSpeed"  x="122" y="178" width="8" height="8" fill="black" />
<rect shape-rendering="optimizeSpeed"  x="138" y="178" width="8" height="8" fill="black" />
<rect shape-rendering="optimizeSpeed"  x="146" y="178" width="8" height="8" fill="black" />
<rect shape-rendering="optimizeSpeed"  x="154" y="178" width="8" height="8" fill="black" />
<rect shape-rendering="optimizeSpeed"  x="178" y="178" width="8" height="8" fill="black" />
<rect shape-rendering="optimizeSpeed"  x="202" y="178" width="8" height="8" fill="black" />
<rect shape-rendering="optimizeSpeed"  x="210" y="178" width="8" height="8" fill="black" />
<rect shape-rendering="optimizeSpeed"  x="218" y="178" width="8" height="8" fill="black" />
<rect shape-rendering="optimizeSpeed"  x="242" y="178" width="8" height="8" fill="black" />
<rect shape-rendering="optimizeSpeed"  x="266" y="178" width="8" height="8" fill="black" />
<rect shape-rendering="optimizeSpeed"  x="18" y="186" width="8" height="8" fill="black" />
<rect shape-rendering="optimizeSpeed"  x="26" y="186" width="8" height="8" fill="black" />
<rect shape-rendering="optimizeSpeed"  x="42" y="186" width="8" height="8" fill="black" />
<rect shape-rendering="optimizeSpeed"  x="50" y="186" width="8" height="8" fill="black" />
<rect shape-rendering="optimizeSpeed"  x="58" y="186" width="8" height="8" fill="black" />
<rect shape-rendering="optimizeSpeed"  x="74" y="186" width="8" height="8" fill="black" />
<rect shape-rendering="optimizeSpeed"  x="90" y="186" width="8" height="8" fill="black" />
<rect shape-rendering="optimizeSpeed"  x="106" y="186" width="8" height="8" fill="black" />
<rect shape-rendering="optimizeSpeed"  x="130" y="186" width="8" height="8" fill="black" />
<rect shape-rendering="optimizeSpeed"  x="154" y="186" width="8" height="8" fill="black" />
<rect shape-rendering="optimizeSpeed"  x="178" y="186" width="8" height="8" fill="black" />
<rect shape-rendering="optimizeSpeed"  x="194" y="186" width="8" height="8" fill="black" />
<rect shape-rendering="optimizeSpeed"  x="202" y="186" width="8" height="8" fill="black" />
<rect shape-rendering="optimizeSpeed"  x="226" y="186" width="8" height="8" fill="black" />
<rect shape-rendering="optimizeSpeed"  x="250" y="186" width="8" height="8" fill="black" />
<rect shape-rendering="optimizeSpeed"  x="266" y="186" width="8" height="8" fill="black" />
<rect shape-rendering="optimizeSpeed"  x="274" y="186" width="8" height="8" fill="black" />
<rect shape-rendering="optimizeSpeed"  x="18" y="194" width="8" height="8" fill="black" />
<rect shape-rendering="optimizeSpeed"  x="42" y="194" width="8" height="8" fill="black" />
<rect shape-rendering="optimizeSpeed"  x="58" y="194" width="8" height="8" fill="black" />
<rect shape-rendering="optimizeSpeed"  x="66" y="194" width="8" height="8" fill="black" />
<rect shape-rendering="optimizeSpeed"  x="82" y="194" width="8" height="8" fill="black" />
<rect shape-rendering="optimizeSpeed"  x="90" y="194" width="8" height="8" fill="black" />
<rect shape-rendering="optimizeSpeed"  x="138" y="194" width="8" height="8" fill="black" />
<rect shape-rendering="optimizeSpeed"  x="162" y="194" width="8" height="8" fill="black" />
<rect shape-rendering="optimizeSpeed"  x="178" y="194" width="8" height="8" fill="black" />
<rect shape-rendering="optimizeSpeed"  x="194" y="194" width="8" height="8" fill="black" />
<rect shape-rendering="optimizeSpeed"  x="218" y="194" width="8" height="8" fill="black" />
<rect shape-rendering="optimizeSpeed"  x="234" y="194" width="8" height="8" fill="black" />
<rect shape-rendering="optimizeSpeed"  x="242" y="194" width="8" height="8" fill="black" />
<rect shape-rendering="optimizeSpeed"  x="250" y="194" width="8" height="8" fill="black" />
<rect shape-rendering="optimizeSpeed"  x="266" y="194" width="8" height="8" fill="black" />
<rect shape-rendering="optimizeSpeed"  x="18" y="202" width="8" height="8" fill="black" />
<rect shape-rendering="optimizeSpeed"  x="50" y="202" width="8" height="8" fill="black" />
<rect shape-rendering="optimizeSpeed"  x="90" y="202" width="8" height="8" fill="black" />
<rect shape-rendering="optimizeSpeed"  x="106" y="202" width="8" height="8" fill="black" />
<rect shape-rendering="optimizeSpeed"  x="162" y="202" width="8" height="8" fill="black" />
<rect shape-rendering="optimizeSpeed"  x="178" y="202" width="8" height="8" fill="black" />
<rect shape-rendering="optimizeSpeed"  x="186" y="202" width="8" height="8" fill="black" />
<rect shape-rendering="optimizeSpeed"  x="194" y="202" width="8" height="8" fill="black" />
<rect shape-rendering="optimizeSpeed"  x="202" y="202" width="8" height="8" fill="black" />
<rect shape-rendering="optimizeSpeed"  x="218" y="202" width="8" height="8" fill="black" />
<rect shape-rendering="optimizeSpeed"  x="242" y="202" width="8" height="8" fill="black" />
<rect shape-rendering="optimizeSpeed"  x="250" y="202" width="8" height="8" fill="black" />
<rect shape-rendering="optimizeSpeed"  x="258" y="202" width="8" height="8" fill="black" />
<rect shape-rendering="optimizeSpeed"  x="18" y="210" width="8" height="8" fill="black" />
<rect shape-rendering="optimizeSpeed"  x="34" y="210" width="8" height="8" fill="black" />
<rect shape-rendering="optimizeSpeed"  x="58" y="210" width="8" height="8" fill="black" />
<rect shape-rendering="optimizeSpeed"  x="66" y="210" width="8" height="8" fill="black" />
<rect shape-rendering="optimizeSpeed"  x="90" y="210" width="8" height="8" fill="black" />
<rect shape-rendering="optimizeSpeed"  x="98" y="210" width="8" height="8" fill="black" />
<rect shape-rendering="optimizeSpeed"  x="106" y="210" width="8" height="8" fill="black" />
<rect shape-rendering="optimizeSpeed"  x="114" y="210" width="8" height="8" fill="black" />
<rect shape-rendering="optimizeSpeed"  x="122" y="210" width="8" height="8" fill="black" />
<rect shape-rendering="optimizeSpeed"  x="138" y="210" width="8" height="8" fill="black" />
<rect shape-rendering="optimizeSpeed"  x="154" y="210" width="8" height="8" fill="black" />
<rect shape-rendering="optimizeSpeed"  x="162" y="210" width="8" height="8" fill="black" />
<rect shape-rendering="optimizeSpeed"  x="170" y="210" width="8" height="8" fill="black" />
<rect shape-rendering="optimizeSpeed"  x="178" y="210" width="8" height="8" fill="black" />
<rect shape-rendering="optimizeSpeed"  x="194" y="210" width="8" height="8" fill="black" />
<rect shape-rendering="optimizeSpeed"  x="202" y="210" width="8" height="8" fill="black" />
<rect shape-rendering="optimizeSpeed"  x="210" y="210" width="8" height="8" fill="black" />
<rect shape-rendering="optimizeSpeed"  x="218" y="210" width="8" height="8" fill="black" />
<rect shape-rendering="optimizeSpeed"  x="226" y="210" width="8" height="8" fill="black" />
<rect shape-rendering="optimizeSpeed"  x="234" y="210" width="8" height="8" fill="black" />
<rect shape-rendering="optimizeSpeed"  x="242" y="210" width="8" height="8" fill="black" />
<rect shape-rendering="optimizeSpeed"  x="250" y="210" width="8" height="8" fill="black" />
<rect shape-rendering="optimizeSpeed"  x="274" y="210" width="8" height="8" fill="black" />
<rect shape-rendering="optimizeSpeed"  x="82" y="218" width="8" height="8" fill="black" />
<rect shape-rendering="optimizeSpeed"  x="90" y="218" width="8" height="8" fill="black" />
<rect shape-rendering="optimizeSpeed"  x="98" y="218" width="8" height="8" fill="black" />
<rect shape-rendering="optimizeSpeed"  x="106" y="218" width="8" height="8" fill="black" />
<rect shape-rendering="optimizeSpeed"  x="122" y="218" width="8" height="8" fill="black" />
<rect shape-rendering="optimizeSpeed"  x="138" y="218" width="8" height="8" fill="black" />
<rect shape-rendering="optimizeSpeed"  x="146" y="218" width="8" height="8" fill="black" />
<rect shape-rendering="optimizeSpeed"  x="170" y="218" width="8" height="8" fill="black" />
<rect shape-rendering="optimizeSpeed"  x="210" y="218" width="8" height="8" fill="black" />
<rect shape-rendering="optimizeSpeed"  x="242" y="218" width="8" height="8" fill="black" />
<rect shape-rendering="optimizeSpeed"  x="250" y="218" width="8" height="8" fill="black" />
<rect shape-rendering="optimizeSpeed"  x="258" y="218" width="8" height="8" fill="black" />
<rect shape-rendering="optimizeSpeed"  x="274" y="218" width="8" height="8" fill="black" />
<rect shape-rendering="optimizeSpeed"  x="18" y="226" width="8" height="8" fill="black" />
<rect shape-rendering="optimizeSpeed"  x="26" y="226" width="8" height="8" fill="black" />
<rect shape-rendering="optimizeSpeed"  x="34" y="226" width="8" height="8" fill="black" />
<rect shape-rendering="optimizeSpeed"  x="42" y="226" width="8" height="8" fill="black" />
<rect shape-rendering="optimizeSpeed"  x="50" y="226" width="8" height="8" fill="black" />
<rect shape-rendering="optimizeSpeed"  x="58" y="226" width="8" height="8" fill="black" />
<rect shape-rendering="optimizeSpeed"  x="66" y="226" width="8" height="8" fill="black" />
<rect shape-rendering="optimizeSpeed"  x="82" y="226" width="8" height="8" fill="black" />
<rect shape-rendering="optimizeSpeed"  x="130" y="226" width="8" height="8" fill="black" />
<rect shape-rendering="optimizeSpeed"  x="138" y="226" width="8" height="8" fill="black" />
<rect shape-rendering="optimizeSpeed"  x="186" y="226" width="8" height="8" fill="black" />
<rect shape-rendering="optimizeSpeed"  x="194" y="226" width="8" height="8" fill="black" />
<rect shape-rendering="optimizeSpeed"  x="202" y="226" width="8" height="8" fill="black" />
<rect shape-rendering="optimizeSpeed"  x="210" y="226" width="8" height="8" fill="black" />
<rect shape-rendering="optimizeSpeed"  x="226" y="226" width="8" height="8" fill="black" />
<rect shape-rendering="optimizeSpeed"  x="242" y="226" width="8" height="8" fill="black" />
<rect shape-rendering="optimizeSpeed"  x="250" y="226" width="8" height="8" fill="black" />
<rect shape-rendering="optimizeSpeed"  x="266" y="226" width="8" height="8" fill="black" />
<rect shape-rendering="optimizeSpeed"  x="18" y="234" width="8" height="8" fill="black" />
<rect shape-rendering="optimizeSpeed"  x="66" y="234" width="8" height="8" fill="black" />
<rect shape-rendering="optimizeSpeed"  x="90" y="234" width="8" height="8" fill="black" />
<rect shape-rendering="optimizeSpeed"  x="98" y="234" width="8" height="8" fill="black" />
<rect shape-rendering="optimizeSpeed"  x="114" y="234" width="8" height="8" fill="black" />
<rect shape-rendering="optimizeSpeed"  x="130" y="234" width="8" height="8" fill="black" />
<rect shape-rendering="optimizeSpeed"  x="138" y="234" width="8" height="8" fill="black" />
<rect shape-rendering="optimizeSpeed"  x="178" y="234" width="8" height="8" fill="black" />
<rect shape-rendering="optimizeSpeed"  x="186" y="234" width="8" height="8" fill="black" />
<rect shape-rendering="optimizeSpeed"  x="202" y="234" width="8" height="8" fill="black" />
<rect shape-rendering="optimizeSpeed"  x="210" y="234" width="8" height="8" fill="black" />
<rect shape-rendering="optimizeSpeed"  x="242" y="234" width="8" height="8" fill="black" />
<rect shape-rendering="optimizeSpeed"  x="250" y="234" width="8" height="8" fill="black" />
<rect shape-rendering="optimizeSpeed"  x="258" y="234" width="8" height="8" fill="black" />
<rect shape-rendering="optimizeSpeed"  x="18" y="242" width="8" height="8" fill="black" />
<rect shape-rendering="optimizeSpeed"  x="34" y="242" width="8" height="8" fill="black" />
<rect shape-rendering="optimizeSpeed"  x="42" y="242" width="8" height="8" fill="black" />
<rect shape-rendering="optimizeSpeed"  x="50" y="242" width="8" height="8" fill="black" />
<rect shape-rendering="optimizeSpeed"  x="66" y="242" width="8" height="8" fill="black" />
<rect shape-rendering="optimizeSpeed"  x="82" y="242" width="8" height="8" fill="black" />
<rect shape-rendering="optimizeSpeed"  x="106" y="242" width="8" height="8" fill="black" />
<rect shape-rendering="optimizeSpeed"  x="122" y="242" width="8" height="8" fill="black" />
<rect shape-rendering="optimizeSpeed"  x="130" y="242" width="8" height="8" fill="black" />
<rect shape-rendering="optimizeSpeed"  x="146" y="242" width="8" height="8" fill="black" />
<rect shape-rendering="optimizeSpeed"  x="154" y="242" width="8" height="8" fill="black" />
<rect shape-rendering="optimizeSpeed"  x="178" y="242" width="8" height="8" fill="black" />
<rect shape-rendering="optimizeSpeed"  x="194" y="242" width="8" height="8" fill="black" />
<rect shape-rendering="optimizeSpeed"  x="210" y="242" width="8" height="8" fill="black" />
<rect shape-rendering="optimizeSpeed"  x="218" y="242" width="8" height="8" fill="black" />
<rect shape-rendering="optimizeSpeed"  x="226" y="242" width="8" height="8" fill="black" />
<rect shape-rendering="optimizeSpeed"  x="234" y="242" width="8" height="8" fill="black" />
<rect shape-rendering="optimizeSpeed"  x="242" y="242" width="8" height="8" fill="black" />
<rect shape-rendering="optimizeSpeed"  x="250" y="242" width="8" height="8" fill="black" />
<rect shape-rendering="optimizeSpeed"  x="274" y="242" width="8" height="8" fill="black" />
<rect shape-rendering="optimizeSpeed"  x="18" y="250" width="8" height="8" fill="black" />
<rect shape-rendering="optimizeSpeed"  x="34" y="250" width="8" height="8" fill="black" />
<rect shape-rendering="optimizeSpeed"  x="42" y="250" width="8" height="8" fill="black" />
<rect shape-rendering="optimizeSpeed"  x="50" y="250" width="8" height="8" fill="black" />
<rect shape-rendering="optimizeSpeed"  x="66" y="250" width="8" height="8" fill="black" />
<rect shape-rendering="optimizeSpeed"  x="82" y="250" width="8" height="8" fill="black" />
<rect shape-rendering="optimizeSpeed"  x="90" y="250" width="8" height="8" fill="black" />
<rect shape-rendering="optimizeSpeed"  x="98" y="250" width="8" height="8" fill="black" />
<rect shape-rendering="optimizeSpeed"  x="106" y="250" width="8" height="8" fill="black" />
<rect shape-rendering="optimizeSpeed"  x="114" y="250" width="8" height="8" fill="black" />
<rect shape-rendering="optimizeSpeed"  x="130" y="250" width="8" height="8" fill="black" />
<rect shape-rendering="optimizeSpeed"  x="146" y="250" width="8" height="8" fill="black" />
<rect shape-rendering="optimizeSpeed"  x="170" y="250" width="8" height="8" fill="black" />
<rect shape-rendering="optimizeSpeed"  x="178" y="250" width="8" height="8" fill="black" />
<rect shape-rendering="optimizeSpeed"  x="202" y="250" width="8" height="8" fill="black" />
<rect shape-rendering="optimizeSpeed"  x="234" y="250" width="8" height="8" fill="black" />
<rect shape-rendering="optimizeSpeed"  x="242" y="250" width="8" height="8" fill="black" />
<rect shape-rendering="optimizeSpeed"  x="250" y="250" width="8" height="8" fill="black" />
<rect shape-rendering="optimizeSpeed"  x="258" y="250" width="8" height="8" fill="black" />
<rect shape-rendering="optimizeSpeed"  x="18" y="258" width="8" height="8" fill="black" />
<rect shape-rendering="optimizeSpeed"  x="34" y="258" width="8" height="8" fill="black" />
<rect shape-rendering="optimizeSpeed"  x="42" y="258" width="8" height="8" fill="black" />
<rect shape-rendering="optimizeSpeed"  x="50" y="258" width="8" height="8" fill="black" />
<rect shape-rendering="optimizeSpeed"  x="66" y="258" width="8" height="8" fill="black" />
<rect shape-rendering="optimizeSpeed"  x="82" y="258" width="8" height="8" fill="black" />
<rect shape-rendering="optimizeSpeed"  x="98" y="258" width="8" height="8" fill="black" />
<rect shape-rendering="optimizeSpeed"  x="114" y="258" width="8" height="8" fill="black" />
<rect shape-rendering="optimizeSpeed"  x="122" y="258" width="8" height="8" fill="black" />
<rect shape-rendering="optimizeSpeed"  x="138" y="258" width="8" height="8" fill="black" />
<rect shape-rendering="optimizeSpeed"  x="146" y="258" width="8" height="8" fill="black" />
<rect shape-rendering="optimizeSpeed"  x="162" y="258" width="8" height="8" fill="black" />
<rect shape-rendering="optimizeSpeed"  x="178" y="258" width="8" height="8" fill="black" />
<rect shape-rendering="optimizeSpeed"  x="186" y="258" width="8" height="8" fill="black" />
<rect shape-rendering="optimizeSpeed"  x="210" y="258" width="8" height="8" fill="black" />
<rect shape-rendering="optimizeSpeed"  x="226" y="258" width="8" height="8" fill="black" />
<rect shape-rendering="optimizeSpeed"  x="234" y="258" width="8" height="8" fill="black" />
<rect shape-rendering="optimizeSpeed"  x="250" y="258" width="8" height="8" fill="black" />
<rect shape-rendering="optimizeSpeed"  x="266" y="258" width="8" height="8" fill="black" />
<rect shape-rendering="optimizeSpeed"  x="18" y="266" width="8" height="8" fill="black" />
<rect shape-rendering="optimizeSpeed"  x="66" y="266" width="8" height="8" fill="black" />
<rect shape-rendering="optimizeSpeed"  x="82" y="266" width="8" height="8" fill="black" />
<rect shape-rendering="optimizeSpeed"  x="90" y="266" width="8" height="8" fill="black" />
<rect shape-rendering="optimizeSpeed"  x="98" y="266" width="8" height="8" fill="black" />
<rect shape-rendering="optimizeSpeed"  x="106" y="266" width="8" height="8" fill="black" />
<rect shape-rendering="optimizeSpeed"  x="114" y="266" width="8" height="8" fill="black" />
<rect shape-rendering="optimizeSpeed"  x="138" y="266" width="8" height="8" fill="black" />
<rect shape-rendering="optimizeSpeed"  x="146" y="266" width="8" height="8" fill="black" />
<rect shape-rendering="optimizeSpeed"  x="170" y="266" width="8" height="8" fill="black" />
<rect shape-rendering="optimizeSpeed"  x="186" y="266" width="8" height="8" fill="black" />
<rect shape-rendering="optimizeSpeed"  x="194" y="266" width="8" height="8" fill="black" />
<rect shape-rendering="optimizeSpeed"  x="218" y="266" width="8" height="8" fill="black" />
<rect shape-rendering="optimizeSpeed"  x="226" y="266" width="8" height="8" fill="black" />
<rect shape-rendering="optimizeSpeed"  x="242" y="266" width="8" height="8" fill="black" />
<rect shape-rendering="optimizeSpeed"  x="250" y="266" width="8" height="8" fill="black" />
<rect shape-rendering="optimizeSpeed"  x="258" y="266" width="8" height="8" fill="black" />
<rect shape-rendering="optimizeSpeed"  x="18" y="274" width="8" height="8" fill="black" />
<rect shape-rendering="optimizeSpeed"  x="26" y="274" width="8" height="8" fill="black" />
<rect shape-rendering="optimizeSpeed"  x="34" y="274" width="8" height="8" fill="black" />
<rect shape-rendering="optimizeSpeed"  x="42" y="274" width="8" height="8" fill="black" />
<rect shape-rendering="optimizeSpeed"  x="50" y="274" width="8" height="8" fill="black" />
<rect shape-rendering="optimizeSpeed"  x="58" y="274" width="8" height="8" fill="black" />
<rect shape-rendering="optimizeSpeed"  x="66" y="274" width="8" height="8" fill="black" />
<rect shape-rendering="optimizeSpeed"  x="82" y="274" width="8" height="8" fill="black" />
<rect shape-rendering="optimizeSpeed"  x="106" y="274" width="8" height="8" fill="black" />
<rect shape-rendering="optimizeSpeed"  x="130" y="274" width="8" height="8" fill="black" />
<rect shape-rendering="optimizeSpeed"  x="154" y="274" width="8" height="8" fill="black" />
<rect shape-rendering="optimizeSpeed"  x="162" y="274" width="8" height="8" fill="black" />
<rect shape-rendering="optimizeSpeed"  x="178" y="274" width="8" height="8" fill="black" />
<rect shape-rendering="optimizeSpeed"  x="194" y="274" width="8" height="8" fill="black" />
<rect shape-rendering="optimizeSpeed"  x="202" y="274" width="8" height="8" fill="black" />
<rect shape-rendering="optimizeSpeed"  x="210" y="274" width="8" height="8" fill="black" />
<rect shape-rendering="optimizeSpeed"  x="226" y="274" width="8" height="8" fill="black" />
<rect shape-rendering="optimizeSpeed"  x="250" y="274" width="8" height="8" fill="black" />
<rect shape-rendering="optimizeSpeed"  x="266" y="274" width="8" height="8" fill="black" /></svg>